<svg width="282" height="44" viewBox="0 0 282 44" fill="none" xmlns="http://www.w3.org/2000/svg">
<path d="M4.40098 25.7971V11.5376H1.77854V9.98049H15.0137V11.5376H13.2107V27.6C13.2107 31.042 12.5551 33.4049 11.2439 34.6888C9.96 35.9727 8.15707 36.6146 5.83512 36.6146C4.08683 36.6146 2.46146 36.4098 0.959024 36L1.90146 29.0341H7.10537V26.8624C7.10537 26.5346 7.03707 26.2888 6.90049 26.1249C6.70927 25.9063 6.36781 25.7971 5.8761 25.7971H4.40098ZM27.2074 36H16.5947V34.4429H18.3977V11.5376H16.5947V9.98049H27.2074V22.1093H33.3538V9.98049H43.9664V11.5376H42.1635V34.4429H43.9664V36H33.3538V24.3629H27.2074V36ZM69.7622 20.6751V25.2644C69.7622 27.4771 69.5027 29.4712 68.9837 31.2468C68.6559 32.3668 67.9046 33.5141 66.73 34.6888C66.211 35.2078 65.1183 35.7132 63.4519 36.2049C62.168 36.5873 59.45 36.7102 55.2978 36.5737C53.4949 36.519 52.3339 36.4098 51.8149 36.2459C51.3232 36.082 50.7632 35.8771 50.1349 35.6312C49.5339 35.358 49.0559 35.0439 48.7007 34.6888C48.3729 34.3063 48.0041 33.8283 47.5944 33.2546C47.2119 32.681 46.9251 32.0117 46.7339 31.2468C46.2422 29.4985 45.9963 27.5044 45.9963 25.2644V20.6751C45.9963 18.4898 46.2422 16.6595 46.7339 15.1844C47.2256 13.682 47.7856 12.562 48.4139 11.8244C49.0422 11.0595 50.0119 10.4859 51.3232 10.1034C52.6344 9.72098 53.7271 9.50244 54.6012 9.44781C55.4754 9.39317 56.5544 9.36585 57.8383 9.36585C59.1495 9.36585 60.0237 9.37951 60.4607 9.40683C60.8978 9.40683 61.4988 9.43415 62.2637 9.48878C63.0559 9.54341 63.6568 9.63902 64.0666 9.77561C64.4763 9.91219 64.9817 10.1171 65.5827 10.3902C66.211 10.6361 66.689 10.9502 67.0168 11.3327C67.3719 11.6878 67.7407 12.1522 68.1232 12.7259C68.5329 13.2995 68.8334 13.9551 69.0246 14.6927C69.5163 16.4137 69.7622 18.4078 69.7622 20.6751ZM60.9524 33.6644V12.2751H54.8061V33.6644H60.9524ZM71.8158 11.5376V9.98049H87.5914L93.369 33.5415H95.0489L91.7299 9.98049H99.5563V11.5376H97.7533V36H83.7807L78.4948 12.439H76.8148L79.6421 36H71.8158V34.4429H73.6187V11.5376H71.8158ZM123.878 9.98049V18.5034H119.084L118.059 12.8488H115.724L116.625 19.7327V34.4429H120.067V36H104.373V34.4429H107.815V19.7327L108.717 12.8488H106.381L105.357 18.7493H100.563V9.98049H123.878ZM135.929 36H125.316V34.4429H127.119V11.5376H125.316V9.98049H139.74C142.471 9.98049 144.179 10.0488 144.862 10.1854C145.544 10.322 146.186 10.4859 146.787 10.6771C147.388 10.841 147.853 11.0595 148.181 11.3327C148.536 11.5785 148.904 11.8927 149.287 12.2751C149.669 12.6576 149.956 13.1083 150.147 13.6273C150.639 14.802 150.885 16.1541 150.885 17.6839C150.885 20.1698 150.366 21.9727 149.328 23.0927C148.29 24.2127 146.801 24.9229 144.862 25.2234V26.1659H146.705C147.634 26.1659 148.276 26.3434 148.631 26.6985C148.986 27.0263 149.219 27.6683 149.328 28.6244L150.024 34.4429H152.196V36H142.075V27.3951H135.929V36ZM142.075 24.4449V12.8488H135.929V24.4449H142.075ZM153.457 11.5376V9.98049H171.978L175.748 34.4429H177.469V36H150.753V34.4429H152.433L155.998 11.5376H153.457ZM159.809 12.439V27.6H164.808L163.455 12.439H159.809ZM159.809 36H165.586L165.013 29.8537H159.809V36ZM195.276 22.8059V23.7483H197.12C198.048 23.7483 198.663 23.8985 198.963 24.199C199.291 24.4995 199.551 25.1278 199.742 26.0839L201.381 34.4429H203.717V36H193.596L191.137 24.3629H188.269V36H177.656V34.4429H179.459V11.5376H177.656V9.98049H188.269V22.1093H191.26L193.596 9.98049H203.307V11.5376H201.176L198.554 20.2244C198.117 21.7541 197.024 22.6146 195.276 22.8059ZM227.437 9.98049V18.5034H222.643L221.619 12.8488H219.283L220.185 19.7327V34.4429H223.627V36H207.933V34.4429H211.375V19.7327L212.276 12.8488H209.941L208.916 18.7493H204.122V9.98049H227.437ZM252.232 20.6751V25.2644C252.232 27.4771 251.972 29.4712 251.453 31.2468C251.125 32.3668 250.374 33.5141 249.2 34.6888C248.68 35.2078 247.588 35.7132 245.921 36.2049C244.638 36.5873 241.92 36.7102 237.767 36.5737C235.964 36.519 234.803 36.4098 234.284 36.2459C233.793 36.082 233.233 35.8771 232.604 35.6312C232.003 35.358 231.525 35.0439 231.17 34.6888C230.842 34.3063 230.474 33.8283 230.064 33.2546C229.681 32.681 229.395 32.0117 229.203 31.2468C228.712 29.4985 228.466 27.5044 228.466 25.2644V20.6751C228.466 18.4898 228.712 16.6595 229.203 15.1844C229.695 13.682 230.255 12.562 230.883 11.8244C231.512 11.0595 232.481 10.4859 233.793 10.1034C235.104 9.72098 236.197 9.50244 237.071 9.44781C237.945 9.39317 239.024 9.36585 240.308 9.36585C241.619 9.36585 242.493 9.37951 242.93 9.40683C243.367 9.40683 243.968 9.43415 244.733 9.48878C245.525 9.54341 246.126 9.63902 246.536 9.77561C246.946 9.91219 247.451 10.1171 248.052 10.3902C248.68 10.6361 249.159 10.9502 249.486 11.3327C249.841 11.6878 250.21 12.1522 250.593 12.7259C251.002 13.2995 251.303 13.9551 251.494 14.6927C251.986 16.4137 252.232 18.4078 252.232 20.6751ZM243.422 33.6644V12.2751H237.276V33.6644H243.422ZM264.898 36H254.285V34.4429H256.088V11.5376H254.285V9.98049H268.709C271.44 9.98049 273.148 10.0488 273.831 10.1854C274.514 10.322 275.156 10.4859 275.757 10.6771C276.357 10.841 276.822 11.0595 277.15 11.3327C277.505 11.5785 277.874 11.8927 278.256 12.2751C278.638 12.6576 278.925 13.1083 279.117 13.6273C279.608 14.802 279.854 16.1541 279.854 17.6839C279.854 20.1698 279.335 21.9727 278.297 23.0927C277.259 24.2127 275.77 24.9229 273.831 25.2234V26.1659H275.675C276.603 26.1659 277.245 26.3434 277.6 26.6985C277.956 27.0263 278.188 27.6683 278.297 28.6244L278.994 34.4429H281.165V36H271.044V27.3951H264.898V36ZM271.044 24.4449V12.8488H264.898V24.4449H271.044Z" fill="#FF7420"/>
</svg>
