<svg width="234" height="36" viewBox="0 0 234 36" fill="none" xmlns="http://www.w3.org/2000/svg">
<path d="M3.81795 21.5461V9.73112H1.64507V8.44098H12.6113V9.73112H11.1175V23.04C11.1175 25.8919 10.5742 27.8498 9.4878 28.9136C8.424 29.9774 6.93015 30.5093 5.00624 30.5093C3.55766 30.5093 2.21093 30.3395 0.966049 30L1.74693 24.2283H6.05873V22.4289C6.05873 22.1573 6.00215 21.9536 5.88898 21.8178C5.73054 21.6367 5.44761 21.5461 5.04019 21.5461H3.81795ZM22.7147 30H13.9214V28.7099H15.4152V9.73112H13.9214V8.44098H22.7147V18.4905H27.8074V8.44098H36.6008V9.73112H35.1069V28.7099H36.6008V30H27.8074V20.3579H22.7147V30ZM57.9744 17.3022V21.1048C57.9744 22.9381 57.7594 24.5904 57.3293 26.0617C57.0577 26.9897 56.4353 27.9403 55.462 28.9136C55.0319 29.3436 54.1266 29.7623 52.7459 30.1698C51.6821 30.4866 49.43 30.5885 45.9896 30.4753C44.4958 30.43 43.5338 30.3395 43.1038 30.2037C42.6963 30.0679 42.2323 29.8981 41.7118 29.6944C41.2138 29.4681 40.8177 29.2078 40.5235 28.9136C40.2519 28.5967 39.9463 28.2006 39.6068 27.7253C39.2899 27.25 39.0522 26.6954 38.8938 26.0617C38.4864 24.6131 38.2827 22.9608 38.2827 21.1048V17.3022C38.2827 15.4915 38.4864 13.975 38.8938 12.7528C39.3012 11.5079 39.7652 10.5799 40.2858 9.96878C40.8064 9.33502 41.6099 8.85971 42.6963 8.54283C43.7828 8.22595 44.6881 8.04488 45.4124 7.99961C46.1367 7.95434 47.0308 7.93171 48.0946 7.93171C49.181 7.93171 49.9053 7.94302 50.2675 7.96566C50.6296 7.96566 51.1276 7.98829 51.7613 8.03356C52.4177 8.07883 52.9157 8.15805 53.2552 8.27122C53.5947 8.38439 54.0134 8.55415 54.5114 8.78049C55.0319 8.9842 55.428 9.24449 55.6997 9.56137C55.9939 9.85561 56.2995 10.2404 56.6163 10.7157C56.9559 11.191 57.2048 11.7342 57.3633 12.3454C57.7707 13.7713 57.9744 15.4236 57.9744 17.3022ZM50.6749 28.0648V10.3422H45.5822V28.0648H50.6749ZM59.6759 9.73112V8.44098H72.7471L77.5343 27.9629H78.9263L76.1762 8.44098H82.6609V9.73112H81.167V30H69.5897L65.21 10.478H63.818L66.1606 30H59.6759V28.7099H61.1698V9.73112H59.6759ZM102.813 8.44098V15.5028H98.8408L97.992 10.8176H96.0568L96.8037 16.5214V28.7099H99.6556V30H86.6523V28.7099H89.5042V16.5214L90.2511 10.8176H88.3159L87.4671 15.7065H83.4948V8.44098H102.813ZM112.798 30H104.005V28.7099H105.499V9.73112H104.005V8.44098H115.956C118.219 8.44098 119.634 8.49756 120.2 8.61073C120.765 8.7239 121.297 8.85971 121.795 9.01815C122.293 9.15395 122.678 9.33502 122.95 9.56137C123.244 9.76507 123.549 10.0254 123.866 10.3422C124.183 10.6591 124.421 11.0326 124.579 11.4626C124.987 12.4359 125.19 13.5563 125.19 14.8238C125.19 16.8835 124.76 18.3774 123.9 19.3054C123.04 20.2334 121.807 20.8219 120.2 21.0708V21.8517H121.727C122.497 21.8517 123.029 21.9988 123.323 22.2931C123.617 22.5647 123.81 23.0966 123.9 23.8888L124.477 28.7099H126.277V30H117.891V22.8702H112.798V30ZM117.891 20.4258V10.8176H112.798V20.4258H117.891ZM127.322 9.73112V8.44098H142.668L145.791 28.7099H147.217V30H125.081V28.7099H126.473L129.427 9.73112H127.322ZM132.584 10.478V23.04H136.726L135.606 10.478H132.584ZM132.584 30H137.371L136.896 24.9073H132.584V30ZM161.971 19.0677V19.8486H163.499C164.269 19.8486 164.778 19.9731 165.027 20.222C165.298 20.471 165.513 20.9916 165.672 21.7838L167.03 28.7099H168.965V30H160.579L158.542 20.3579H156.166V30H147.372V28.7099H148.866V9.73112H147.372V8.44098H156.166V18.4905H158.644L160.579 8.44098H168.626V9.73112H166.86L164.687 16.9288C164.325 18.1963 163.42 18.9093 161.971 19.0677ZM188.619 8.44098V15.5028H184.647L183.798 10.8176H181.863L182.61 16.5214V28.7099H185.462V30H172.459V28.7099H175.311V16.5214L176.058 10.8176H174.122L173.274 15.7065H169.301V8.44098H188.619ZM209.163 17.3022V21.1048C209.163 22.9381 208.948 24.5904 208.518 26.0617C208.247 26.9897 207.624 27.9403 206.651 28.9136C206.221 29.3436 205.316 29.7623 203.935 30.1698C202.871 30.4866 200.619 30.5885 197.179 30.4753C195.685 30.43 194.723 30.3395 194.293 30.2037C193.885 30.0679 193.421 29.8981 192.901 29.6944C192.403 29.4681 192.007 29.2078 191.712 28.9136C191.441 28.5967 191.135 28.2006 190.796 27.7253C190.479 27.25 190.241 26.6954 190.083 26.0617C189.675 24.6131 189.472 22.9608 189.472 21.1048V17.3022C189.472 15.4915 189.675 13.975 190.083 12.7528C190.49 11.5079 190.954 10.5799 191.475 9.96878C191.995 9.33502 192.799 8.85971 193.885 8.54283C194.972 8.22595 195.877 8.04488 196.601 7.99961C197.326 7.95434 198.22 7.93171 199.284 7.93171C200.37 7.93171 201.094 7.94302 201.456 7.96566C201.819 7.96566 202.317 7.98829 202.95 8.03356C203.607 8.07883 204.105 8.15805 204.444 8.27122C204.784 8.38439 205.202 8.55415 205.7 8.78049C206.221 8.9842 206.617 9.24449 206.889 9.56137C207.183 9.85561 207.488 10.2404 207.805 10.7157C208.145 11.191 208.394 11.7342 208.552 12.3454C208.96 13.7713 209.163 15.4236 209.163 17.3022ZM201.864 28.0648V10.3422H196.771V28.0648H201.864ZM219.658 30H210.865V28.7099H212.359V9.73112H210.865V8.44098H222.816C225.079 8.44098 226.494 8.49756 227.06 8.61073C227.626 8.7239 228.157 8.85971 228.655 9.01815C229.153 9.15395 229.538 9.33502 229.81 9.56137C230.104 9.76507 230.41 10.0254 230.726 10.3422C231.043 10.6591 231.281 11.0326 231.439 11.4626C231.847 12.4359 232.051 13.5563 232.051 14.8238C232.051 16.8835 231.62 18.3774 230.76 19.3054C229.9 20.2334 228.667 20.8219 227.06 21.0708V21.8517H228.587C229.357 21.8517 229.889 21.9988 230.183 22.2931C230.477 22.5647 230.67 23.0966 230.76 23.8888L231.338 28.7099H233.137V30H224.751V22.8702H219.658V30ZM224.751 20.4258V10.8176H219.658V20.4258H224.751Z" fill="white"/>
</svg>
